<svg width="512" height="512" viewBox="0 0 512 512" fill="none" xmlns="http://www.w3.org/2000/svg">
<g filter="url(#filter0_d_21439_318)">
<path d="M288.81 264.496C278.153 296.73 232.699 296.73 222.042 264.496C220.567 260.034 219.995 255.322 220.361 250.635L231.694 93.7729C232.664 81.3457 243 71.7576 255.426 71.7576C267.853 71.7576 278.188 81.3457 279.158 93.7729L290.491 250.635C290.857 255.322 290.286 260.034 288.81 264.496Z" fill="#FCFCFC"/>
<path d="M231.248 276.461C233.139 308.358 195.345 326.329 171.926 304.67C167.759 300.815 164.575 296.013 162.643 290.667L123.653 182.772C119.348 170.858 124.778 157.614 136.193 152.185C147.608 146.757 161.267 150.925 167.735 161.81L226.318 260.388C229.221 265.272 230.912 270.784 231.248 276.461Z" fill="#FCFCFC"/>
<path d="M194.277 264.028C195.984 262.578 197.809 261.274 199.733 260.129L273.089 216.508C290.74 206.012 313.322 217.175 315.777 237.611C316.485 243.507 319.012 249.034 323.005 253.418L370.355 305.422C380.948 317.057 383.761 333.839 377.544 348.309L347.615 417.969C341.302 432.663 326.879 442.182 310.928 442.182H199.924C183.973 442.182 169.551 432.663 163.237 417.969L134.802 351.787C127.846 335.597 132.255 316.749 145.663 305.352L194.277 264.028Z" fill="#FCFCFC"/>
<path d="M157.124 370.632C128.699 362.743 122.024 325.356 145.953 308.062C151.308 304.192 157.642 301.913 164.229 301.486L254.085 295.664C266.75 294.844 278.01 303.693 280.248 316.224C282.485 328.756 274.986 340.975 262.825 344.614L176.539 370.437C170.214 372.33 163.485 372.397 157.124 370.632Z" fill="#FCFCFC"/>
<path d="M341.546 219.001C330.433 191.986 292.519 191.338 280.413 217.957C278.038 223.178 277.042 228.922 277.519 234.637L285.682 332.336C286.68 344.282 296.526 353.521 308.477 353.725C320.427 353.929 330.609 345.033 332.049 333.128L343.821 235.769C344.509 230.074 343.726 224.3 341.546 219.001Z" fill="#FCFCFC"/>
<path d="M388.006 257.73C376.39 235.568 345.251 234.174 331.541 255.203C327.491 261.415 325.646 268.808 326.305 276.184L331.849 338.21C332.926 350.253 342.697 359.621 354.745 360.16C366.794 360.699 377.429 352.245 379.667 340.35L391.189 279.088C392.559 271.803 391.437 264.277 388.006 257.73Z" fill="#FCFCFC"/>
</g>
<defs>
<filter id="filter0_d_21439_318" x="102.182" y="66.7576" width="309.576" height="410.424" filterUnits="userSpaceOnUse" color-interpolation-filters="sRGB">
<feFlood flood-opacity="0" result="BackgroundImageFix"/>
<feColorMatrix in="SourceAlpha" type="matrix" values="0 0 0 0 0 0 0 0 0 0 0 0 0 0 0 0 0 0 127 0" result="hardAlpha"/>
<feOffset dy="15"/>
<feGaussianBlur stdDeviation="10"/>
<feComposite in2="hardAlpha" operator="out"/>
<feColorMatrix type="matrix" values="0 0 0 0 0 0 0 0 0 0 0 0 0 0 0 0 0 0 0.3 0"/>
<feBlend mode="normal" in2="BackgroundImageFix" result="effect1_dropShadow_21439_318"/>
<feBlend mode="normal" in="SourceGraphic" in2="effect1_dropShadow_21439_318" result="shape"/>
</filter>
</defs>
</svg>
